<?xml version="1.0" encoding="UTF-8" ?>
<svg version="1.1" width="16" height="16" xmlns="http://www.w3.org/2000/svg" shape-rendering="crispEdges">
<rect x="0" y="0" width="1" height="1" fill="#9DA2AB" />
<rect x="1" y="0" width="1" height="1" fill="#969CA7" />
<rect x="2" y="0" width="1" height="2" fill="#363A41" />
<rect x="3" y="0" width="2" height="1" fill="#454A52" />
<rect x="5" y="0" width="1" height="1" fill="#474B54" />
<rect x="6" y="0" width="1" height="1" fill="#787F8A" />
<rect x="7" y="0" width="1" height="1" fill="#8E939D" />
<rect x="8" y="0" width="1" height="1" fill="#7E8590" />
<rect x="9" y="0" width="1" height="1" fill="#474D54" />
<rect x="10" y="0" width="1" height="1" fill="#4B5058" />
<rect x="11" y="0" width="1" height="1" fill="#383C44" />
<rect x="12" y="0" width="1" height="1" fill="#585E69" />
<rect x="13" y="0" width="1" height="1" fill="#6C7280" />
<rect x="14" y="0" width="1" height="1" fill="#848B98" />
<rect x="15" y="0" width="1" height="1" fill="#9DA2AB" />
<rect x="0" y="1" width="1" height="1" fill="#969CA7" />
<rect x="1" y="1" width="1" height="2" fill="#585E69" />
<rect x="3" y="1" width="1" height="1" fill="#454A52" />
<rect x="4" y="1" width="1" height="1" fill="#3F434A" />
<rect x="5" y="1" width="1" height="1" fill="#6A707B" />
<rect x="6" y="1" width="1" height="1" fill="#434850" />
<rect x="7" y="1" width="1" height="1" fill="#363A41" />
<rect x="8" y="1" width="1" height="1" fill="#4A4F57" />
<rect x="9" y="1" width="1" height="1" fill="#3D424A" />
<rect x="10" y="1" width="1" height="1" fill="#33373E" />
<rect x="11" y="1" width="2" height="1" fill="#363A41" />
<rect x="13" y="1" width="1" height="1" fill="#585E69" />
<rect x="14" y="1" width="1" height="1" fill="#69707D" />
<rect x="15" y="1" width="1" height="1" fill="#848B98" />
<rect x="0" y="2" width="1" height="1" fill="#69707D" />
<rect x="2" y="2" width="1" height="1" fill="#454A52" />
<rect x="3" y="2" width="1" height="1" fill="#646A77" />
<rect x="4" y="2" width="1" height="1" fill="#6A707B" />
<rect x="5" y="2" width="1" height="1" fill="#656C78" />
<rect x="6" y="2" width="1" height="1" fill="#7F8794" />
<rect x="7" y="2" width="1" height="1" fill="#969BA7" />
<rect x="8" y="2" width="1" height="1" fill="#969CA7" />
<rect x="9" y="2" width="1" height="1" fill="#575D65" />
<rect x="10" y="2" width="1" height="1" fill="#40454C" />
<rect x="11" y="2" width="1" height="1" fill="#383C43" />
<rect x="12" y="2" width="2" height="1" fill="#454A52" />
<rect x="14" y="2" width="1" height="1" fill="#363A41" />
<rect x="15" y="2" width="1" height="1" fill="#6C7280" />
<rect x="0" y="3" width="1" height="1" fill="#585E69" />
<rect x="1" y="3" width="1" height="1" fill="#474B54" />
<rect x="2" y="3" width="1" height="1" fill="#646A77" />
<rect x="3" y="3" width="1" height="1" fill="#6A707B" />
<rect x="4" y="3" width="1" height="1" fill="#50555F" />
<rect x="5" y="3" width="1" height="2" fill="#6E7583" />
<rect x="6" y="3" width="1" height="1" fill="#7C838F" />
<rect x="7" y="3" width="1" height="1" fill="#848B98" />
<rect x="8" y="3" width="1" height="1" fill="#959AA5" />
<rect x="9" y="3" width="1" height="1" fill="#969CA7" />
<rect x="10" y="3" width="1" height="1" fill="#43484F" />
<rect x="11" y="3" width="1" height="1" fill="#3B3F46" />
<rect x="12" y="3" width="1" height="1" fill="#595E68" />
<rect x="13" y="3" width="1" height="1" fill="#7E8594" />
<rect x="14" y="3" width="1" height="1" fill="#454A52" />
<rect x="15" y="3" width="1" height="2" fill="#363A41" />
<rect x="0" y="4" width="1" height="1" fill="#3F444B" />
<rect x="1" y="4" width="1" height="1" fill="#41454D" />
<rect x="2" y="4" width="1" height="1" fill="#33363D" />
<rect x="3" y="4" width="1" height="1" fill="#33373E" />
<rect x="4" y="4" width="1" height="1" fill="#434750" />
<rect x="6" y="4" width="1" height="1" fill="#69707D" />
<rect x="7" y="4" width="1" height="1" fill="#646A77" />
<rect x="8" y="4" width="1" height="1" fill="#6C7280" />
<rect x="9" y="4" width="1" height="1" fill="#9399A4" />
<rect x="10" y="4" width="1" height="1" fill="#3A3E45" />
<rect x="11" y="4" width="1" height="1" fill="#585E68" />
<rect x="12" y="4" width="1" height="1" fill="#5E646F" />
<rect x="13" y="4" width="1" height="1" fill="#444951" />
<rect x="14" y="4" width="1" height="1" fill="#4C515B" />
<rect x="0" y="5" width="1" height="1" fill="#34383E" />
<rect x="1" y="5" width="1" height="1" fill="#585E68" />
<rect x="2" y="5" width="1" height="1" fill="#565B65" />
<rect x="3" y="5" width="1" height="1" fill="#434750" />
<rect x="4" y="5" width="1" height="1" fill="#3D424A" />
<rect x="5" y="5" width="1" height="1" fill="#41454D" />
<rect x="6" y="5" width="1" height="1" fill="#50555F" />
<rect x="7" y="5" width="1" height="1" fill="#69707D" />
<rect x="8" y="5" width="1" height="1" fill="#4D525B" />
<rect x="9" y="5" width="1" height="1" fill="#393D45" />
<rect x="10" y="5" width="1" height="2" fill="#585E68" />
<rect x="11" y="5" width="1" height="1" fill="#969CA7" />
<rect x="12" y="5" width="1" height="1" fill="#969CA8" />
<rect x="13" y="5" width="1" height="2" fill="#969CA7" />
<rect x="14" y="5" width="1" height="1" fill="#666C77" />
<rect x="15" y="5" width="1" height="1" fill="#4A4F58" />
<rect x="0" y="6" width="1" height="2" fill="#7E8590" />
<rect x="1" y="6" width="1" height="1" fill="#727985" />
<rect x="2" y="6" width="2" height="1" fill="#959BA6" />
<rect x="4" y="6" width="1" height="1" fill="#474C54" />
<rect x="5" y="6" width="1" height="1" fill="#42474F" />
<rect x="6" y="6" width="2" height="1" fill="#4A4E57" />
<rect x="8" y="6" width="1" height="1" fill="#444850" />
<rect x="9" y="6" width="1" height="2" fill="#393D44" />
<rect x="11" y="6" width="1" height="1" fill="#878D9A" />
<rect x="12" y="6" width="1" height="1" fill="#848C9B" />
<rect x="14" y="6" width="1" height="1" fill="#969BA7" />
<rect x="15" y="6" width="1" height="1" fill="#41464E" />
<rect x="1" y="7" width="1" height="1" fill="#696E7A" />
<rect x="2" y="7" width="1" height="1" fill="#707683" />
<rect x="3" y="7" width="1" height="1" fill="#7D8592" />
<rect x="4" y="7" width="1" height="1" fill="#494E56" />
<rect x="5" y="7" width="1" height="1" fill="#79808D" />
<rect x="6" y="7" width="2" height="1" fill="#969CA8" />
<rect x="8" y="7" width="1" height="1" fill="#9298A3" />
<rect x="10" y="7" width="1" height="1" fill="#50565F" />
<rect x="11" y="7" width="1" height="1" fill="#585E68" />
<rect x="12" y="7" width="1" height="1" fill="#626974" />
<rect x="13" y="7" width="1" height="1" fill="#585E68" />
<rect x="14" y="7" width="1" height="1" fill="#3C4148" />
<rect x="15" y="7" width="1" height="1" fill="#636871" />
<rect x="0" y="8" width="1" height="1" fill="#4F535D" />
<rect x="1" y="8" width="1" height="1" fill="#7E8590" />
<rect x="2" y="8" width="1" height="1" fill="#474C54" />
<rect x="3" y="8" width="1" height="1" fill="#42474E" />
<rect x="4" y="8" width="1" height="1" fill="#575E68" />
<rect x="5" y="8" width="1" height="1" fill="#5C636E" />
<rect x="6" y="8" width="1" height="1" fill="#747C89" />
<rect x="7" y="8" width="1" height="1" fill="#858D9B" />
<rect x="8" y="8" width="1" height="1" fill="#949AA6" />
<rect x="9" y="8" width="2" height="1" fill="#353940" />
<rect x="11" y="8" width="1" height="1" fill="#393D44" />
<rect x="12" y="8" width="1" height="1" fill="#40454C" />
<rect x="13" y="8" width="1" height="1" fill="#3E434B" />
<rect x="14" y="8" width="1" height="1" fill="#474B54" />
<rect x="15" y="8" width="1" height="1" fill="#444A53" />
<rect x="0" y="9" width="1" height="1" fill="#363A41" />
<rect x="1" y="9" width="1" height="1" fill="#34383F" />
<rect x="2" y="9" width="1" height="1" fill="#363A41" />
<rect x="3" y="9" width="1" height="1" fill="#4A4F58" />
<rect x="4" y="9" width="1" height="1" fill="#454A52" />
<rect x="5" y="9" width="1" height="1" fill="#50565F" />
<rect x="6" y="9" width="1" height="1" fill="#676E7B" />
<rect x="7" y="9" width="1" height="1" fill="#676E7A" />
<rect x="8" y="9" width="1" height="1" fill="#8E949F" />
<rect x="9" y="9" width="1" height="1" fill="#3D4249" />
<rect x="10" y="9" width="1" height="1" fill="#858C99" />
<rect x="11" y="9" width="1" height="1" fill="#9DA2AB" />
<rect x="12" y="9" width="1" height="1" fill="#9CA1AB" />
<rect x="13" y="9" width="1" height="1" fill="#393D44" />
<rect x="14" y="9" width="1" height="1" fill="#444A53" />
<rect x="15" y="9" width="1" height="1" fill="#585E67" />
<rect x="0" y="10" width="1" height="1" fill="#585E67" />
<rect x="1" y="10" width="1" height="1" fill="#40444C" />
<rect x="2" y="10" width="1" height="1" fill="#8F95A0" />
<rect x="3" y="10" width="1" height="1" fill="#868C96" />
<rect x="4" y="10" width="1" height="1" fill="#494E56" />
<rect x="5" y="10" width="1" height="1" fill="#40454C" />
<rect x="6" y="10" width="1" height="1" fill="#626976" />
<rect x="7" y="10" width="1" height="1" fill="#555B66" />
<rect x="8" y="10" width="1" height="1" fill="#32363D" />
<rect x="9" y="10" width="1" height="1" fill="#6C7380" />
<rect x="10" y="10" width="1" height="1" fill="#828A97" />
<rect x="11" y="10" width="1" height="1" fill="#8B93A1" />
<rect x="12" y="10" width="1" height="1" fill="#9DA1AB" />
<rect x="13" y="10" width="1" height="1" fill="#9BA0AA" />
<rect x="14" y="10" width="1" height="1" fill="#353940" />
<rect x="15" y="10" width="1" height="1" fill="#474B54" />
<rect x="0" y="11" width="1" height="1" fill="#363A41" />
<rect x="1" y="11" width="1" height="2" fill="#41464E" />
<rect x="2" y="11" width="1" height="1" fill="#78808C" />
<rect x="3" y="11" width="1" height="1" fill="#8B919B" />
<rect x="4" y="11" width="1" height="1" fill="#9297A3" />
<rect x="5" y="11" width="1" height="1" fill="#606670" />
<rect x="6" y="11" width="1" height="1" fill="#3F434B" />
<rect x="7" y="11" width="1" height="1" fill="#3A3E45" />
<rect x="8" y="11" width="1" height="1" fill="#555A64" />
<rect x="9" y="11" width="1" height="1" fill="#707784" />
<rect x="10" y="11" width="1" height="1" fill="#6B727F" />
<rect x="11" y="11" width="1" height="1" fill="#848C9A" />
<rect x="12" y="11" width="1" height="1" fill="#88909E" />
<rect x="13" y="11" width="1" height="1" fill="#707784" />
<rect x="14" y="11" width="1" height="1" fill="#6C7380" />
<rect x="15" y="11" width="1" height="1" fill="#7E8590" />
<rect x="0" y="12" width="1" height="1" fill="#41464E" />
<rect x="2" y="12" width="1" height="1" fill="#838A97" />
<rect x="3" y="12" width="1" height="1" fill="#89909E" />
<rect x="4" y="12" width="1" height="1" fill="#9096A0" />
<rect x="5" y="12" width="1" height="1" fill="#969CA8" />
<rect x="6" y="12" width="1" height="1" fill="#666D78" />
<rect x="7" y="12" width="1" height="1" fill="#363B42" />
<rect x="8" y="12" width="1" height="1" fill="#50565F" />
<rect x="9" y="12" width="1" height="1" fill="#6C7380" />
<rect x="10" y="12" width="1" height="1" fill="#707784" />
<rect x="11" y="12" width="1" height="1" fill="#686F7C" />
<rect x="12" y="12" width="1" height="1" fill="#767C89" />
<rect x="13" y="12" width="1" height="1" fill="#6C7380" />
<rect x="14" y="12" width="1" height="1" fill="#555B66" />
<rect x="15" y="12" width="1" height="1" fill="#444A53" />
<rect x="0" y="13" width="1" height="1" fill="#656B75" />
<rect x="1" y="13" width="1" height="1" fill="#363B42" />
<rect x="2" y="13" width="1" height="1" fill="#4A4F58" />
<rect x="3" y="13" width="1" height="1" fill="#8A92A0" />
<rect x="4" y="13" width="1" height="1" fill="#7E8591" />
<rect x="5" y="13" width="1" height="1" fill="#8D929D" />
<rect x="6" y="13" width="1" height="1" fill="#545963" />
<rect x="7" y="13" width="1" height="1" fill="#383D44" />
<rect x="8" y="13" width="1" height="1" fill="#555B66" />
<rect x="9" y="13" width="1" height="1" fill="#50565F" />
<rect x="10" y="13" width="1" height="1" fill="#656C78" />
<rect x="11" y="13" width="1" height="1" fill="#6C7380" />
<rect x="12" y="13" width="1" height="1" fill="#50565F" />
<rect x="13" y="13" width="1" height="1" fill="#555B66" />
<rect x="14" y="13" width="1" height="1" fill="#363A41" />
<rect x="15" y="13" width="1" height="2" fill="#50565F" />
<rect x="0" y="14" width="1" height="1" fill="#969CA7" />
<rect x="1" y="14" width="1" height="1" fill="#69707D" />
<rect x="2" y="14" width="1" height="1" fill="#474B54" />
<rect x="3" y="14" width="1" height="1" fill="#3D4249" />
<rect x="4" y="14" width="1" height="1" fill="#494D56" />
<rect x="5" y="14" width="1" height="1" fill="#3B3F46" />
<rect x="6" y="14" width="1" height="1" fill="#393D44" />
<rect x="7" y="14" width="1" height="1" fill="#474C54" />
<rect x="8" y="14" width="1" height="1" fill="#3B4047" />
<rect x="9" y="14" width="1" height="1" fill="#3E434A" />
<rect x="10" y="14" width="1" height="1" fill="#4D535C" />
<rect x="11" y="14" width="1" height="1" fill="#50565F" />
<rect x="12" y="14" width="1" height="1" fill="#555B66" />
<rect x="13" y="14" width="1" height="1" fill="#363A41" />
<rect x="14" y="14" width="1" height="1" fill="#50565F" />
<rect x="0" y="15" width="2" height="1" fill="#9DA2AB" />
<rect x="2" y="15" width="1" height="1" fill="#969CA7" />
<rect x="3" y="15" width="1" height="1" fill="#656B75" />
<rect x="4" y="15" width="1" height="1" fill="#50565F" />
<rect x="5" y="15" width="1" height="1" fill="#3D4148" />
<rect x="6" y="15" width="1" height="1" fill="#60656D" />
<rect x="7" y="15" width="1" height="1" fill="#898E98" />
<rect x="8" y="15" width="1" height="1" fill="#747A85" />
<rect x="9" y="15" width="1" height="1" fill="#3F444B" />
<rect x="10" y="15" width="1" height="1" fill="#9196A0" />
<rect x="11" y="15" width="1" height="1" fill="#4D535C" />
<rect x="12" y="15" width="1" height="1" fill="#363A41" />
<rect x="13" y="15" width="1" height="1" fill="#50565F" />
<rect x="14" y="15" width="1" height="1" fill="#444A53" />
<rect x="15" y="15" width="1" height="1" fill="#6C7380" />
</svg>