<?xml version="1.0" encoding="UTF-8" ?>
<svg version="1.1" width="136" height="88" xmlns="http://www.w3.org/2000/svg" shape-rendering="crispEdges">
<rect x="10" y="0" width="46" height="6" fill="#FFFFFF" />
<rect x="84" y="0" width="36" height="10" fill="#FFFFFF" />
<rect x="9" y="1" width="1" height="9" fill="#FFFFFF" />
<rect x="120" y="1" width="4" height="13" fill="#FFFFFF" />
<rect x="56" y="2" width="1" height="28" fill="#FFFFFF" />
<rect x="83" y="2" width="1" height="28" fill="#FFFFFF" />
<rect x="124" y="2" width="3" height="45" fill="#FFFFFF" />
<rect x="127" y="3" width="2" height="42" fill="#FFFFFF" />
<rect x="57" y="4" width="1" height="29" fill="#FFFFFF" />
<rect x="82" y="4" width="1" height="28" fill="#FFFFFF" />
<rect x="129" y="4" width="1" height="40" fill="#FFFFFF" />
<rect x="130" y="5" width="1" height="38" fill="#FFFFFF" />
<rect x="10" y="6" width="33" height="4" fill="#FFFFFF" />
<rect x="45" y="6" width="11" height="2" fill="#FFFFFF" />
<rect x="58" y="6" width="1" height="29" fill="#FFFFFF" />
<rect x="81" y="6" width="1" height="28" fill="#FFFFFF" />
<rect x="131" y="6" width="1" height="36" fill="#FFFFFF" />
<rect x="8" y="7" width="1" height="3" fill="#FFFFFF" />
<rect x="43" y="8" width="1" height="32" fill="#FFFFFF" />
<rect x="46" y="8" width="10" height="2" fill="#FFFFFF" />
<rect x="59" y="8" width="1" height="29" fill="#FFFFFF" />
<rect x="80" y="8" width="1" height="28" fill="#FFFFFF" />
<rect x="132" y="8" width="1" height="32" fill="#FFFFFF" />
<rect x="27" y="10" width="16" height="1" fill="#FFFFFF" />
<rect x="44" y="10" width="1" height="28" fill="#FFFFFF" />
<rect x="47" y="10" width="9" height="2" fill="#FFFFFF" />
<rect x="60" y="10" width="1" height="29" fill="#FFFFFF" />
<rect x="79" y="10" width="1" height="28" fill="#FFFFFF" />
<rect x="84" y="10" width="8" height="3" fill="#FFFFFF" />
<rect x="116" y="10" width="4" height="1" fill="#FFFFFF" />
<rect x="133" y="10" width="1" height="28" fill="#FFFFFF" />
<rect x="28" y="11" width="15" height="1" fill="#FFFFFF" />
<rect x="117" y="11" width="3" height="1" fill="#FFFFFF" />
<rect x="30" y="12" width="13" height="1" fill="#FFFFFF" />
<rect x="48" y="12" width="8" height="2" fill="#FFFFFF" />
<rect x="61" y="12" width="1" height="29" fill="#FFFFFF" />
<rect x="78" y="12" width="1" height="28" fill="#FFFFFF" />
<rect x="119" y="12" width="1" height="1" fill="#FFFFFF" />
<rect x="7" y="13" width="12" height="6" fill="#FFFFFF" />
<rect x="31" y="13" width="12" height="1" fill="#FFFFFF" />
<rect x="45" y="13" width="1" height="22" fill="#FFFFFF" />
<rect x="84" y="13" width="7" height="2" fill="#FFFFFF" />
<rect x="96" y="13" width="12" height="6" fill="#FFFFFF" />
<rect x="134" y="13" width="1" height="22" fill="#FFFFFF" />
<rect x="32" y="14" width="11" height="2" fill="#FFFFFF" />
<rect x="49" y="14" width="7" height="2" fill="#FFFFFF" />
<rect x="62" y="14" width="1" height="29" fill="#FFFFFF" />
<rect x="77" y="14" width="1" height="28" fill="#FFFFFF" />
<rect x="121" y="14" width="3" height="2" fill="#FFFFFF" />
<rect x="84" y="15" width="6" height="2" fill="#FFFFFF" />
<rect x="33" y="16" width="10" height="2" fill="#FFFFFF" />
<rect x="50" y="16" width="6" height="2" fill="#FFFFFF" />
<rect x="122" y="16" width="2" height="2" fill="#FFFFFF" />
<rect x="46" y="17" width="1" height="16" fill="#FFFFFF" />
<rect x="63" y="17" width="1" height="28" fill="#FFFFFF" />
<rect x="76" y="17" width="1" height="28" fill="#FFFFFF" />
<rect x="84" y="17" width="5" height="2" fill="#FFFFFF" />
<rect x="135" y="17" width="1" height="16" fill="#FFFFFF" />
<rect x="34" y="18" width="9" height="24" fill="#FFFFFF" />
<rect x="51" y="18" width="5" height="2" fill="#FFFFFF" />
<rect x="123" y="18" width="1" height="31" fill="#FFFFFF" />
<rect x="6" y="19" width="12" height="4" fill="#FFFFFF" />
<rect x="64" y="19" width="1" height="28" fill="#FFFFFF" />
<rect x="75" y="19" width="1" height="28" fill="#FFFFFF" />
<rect x="84" y="19" width="4" height="2" fill="#FFFFFF" />
<rect x="95" y="19" width="12" height="4" fill="#FFFFFF" />
<rect x="52" y="20" width="4" height="2" fill="#FFFFFF" />
<rect x="65" y="21" width="1" height="28" fill="#FFFFFF" />
<rect x="74" y="21" width="1" height="28" fill="#FFFFFF" />
<rect x="84" y="21" width="3" height="2" fill="#FFFFFF" />
<rect x="53" y="22" width="3" height="2" fill="#FFFFFF" />
<rect x="6" y="23" width="11" height="8" fill="#FFFFFF" />
<rect x="66" y="23" width="1" height="28" fill="#FFFFFF" />
<rect x="73" y="23" width="1" height="28" fill="#FFFFFF" />
<rect x="84" y="23" width="2" height="2" fill="#FFFFFF" />
<rect x="95" y="23" width="11" height="8" fill="#FFFFFF" />
<rect x="54" y="24" width="2" height="2" fill="#FFFFFF" />
<rect x="5" y="25" width="1" height="28" fill="#FFFFFF" />
<rect x="67" y="25" width="1" height="28" fill="#FFFFFF" />
<rect x="72" y="25" width="1" height="28" fill="#FFFFFF" />
<rect x="84" y="25" width="1" height="3" fill="#FFFFFF" />
<rect x="94" y="25" width="1" height="28" fill="#FFFFFF" />
<rect x="55" y="26" width="1" height="2" fill="#FFFFFF" />
<rect x="33" y="27" width="1" height="23" fill="#FFFFFF" />
<rect x="68" y="27" width="1" height="28" fill="#FFFFFF" />
<rect x="71" y="27" width="1" height="28" fill="#FFFFFF" />
<rect x="122" y="27" width="1" height="23" fill="#FFFFFF" />
<rect x="69" y="29" width="2" height="37" fill="#FFFFFF" />
<rect x="32" y="30" width="1" height="20" fill="#FFFFFF" />
<rect x="121" y="30" width="1" height="20" fill="#FFFFFF" />
<rect x="6" y="31" width="10" height="8" fill="#FFFFFF" />
<rect x="95" y="31" width="10" height="8" fill="#FFFFFF" />
<rect x="4" y="32" width="1" height="21" fill="#FFFFFF" />
<rect x="93" y="32" width="1" height="21" fill="#FFFFFF" />
<rect x="31" y="33" width="1" height="17" fill="#FFFFFF" />
<rect x="120" y="33" width="1" height="17" fill="#FFFFFF" />
<rect x="30" y="34" width="1" height="17" fill="#FFFFFF" />
<rect x="119" y="34" width="1" height="17" fill="#FFFFFF" />
<rect x="29" y="36" width="1" height="15" fill="#FFFFFF" />
<rect x="118" y="36" width="1" height="15" fill="#FFFFFF" />
<rect x="3" y="38" width="1" height="15" fill="#FFFFFF" />
<rect x="28" y="38" width="1" height="14" fill="#FFFFFF" />
<rect x="92" y="38" width="1" height="15" fill="#FFFFFF" />
<rect x="117" y="38" width="1" height="14" fill="#FFFFFF" />
<rect x="6" y="39" width="9" height="14" fill="#FFFFFF" />
<rect x="27" y="39" width="1" height="13" fill="#FFFFFF" />
<rect x="95" y="39" width="9" height="14" fill="#FFFFFF" />
<rect x="116" y="39" width="1" height="13" fill="#FFFFFF" />
<rect x="26" y="40" width="1" height="13" fill="#FFFFFF" />
<rect x="115" y="40" width="1" height="13" fill="#FFFFFF" />
<rect x="25" y="41" width="1" height="12" fill="#FFFFFF" />
<rect x="114" y="41" width="1" height="12" fill="#FFFFFF" />
<rect x="23" y="42" width="2" height="11" fill="#FFFFFF" />
<rect x="34" y="42" width="8" height="1" fill="#FFFFFF" />
<rect x="112" y="42" width="2" height="11" fill="#FFFFFF" />
<rect x="21" y="43" width="2" height="10" fill="#FFFFFF" />
<rect x="34" y="43" width="7" height="1" fill="#FFFFFF" />
<rect x="110" y="43" width="2" height="10" fill="#FFFFFF" />
<rect x="2" y="44" width="1" height="9" fill="#FFFFFF" />
<rect x="15" y="44" width="6" height="9" fill="#FFFFFF" />
<rect x="34" y="44" width="6" height="1" fill="#FFFFFF" />
<rect x="91" y="44" width="1" height="9" fill="#FFFFFF" />
<rect x="104" y="44" width="6" height="9" fill="#FFFFFF" />
<rect x="34" y="45" width="5" height="1" fill="#FFFFFF" />
<rect x="127" y="45" width="1" height="1" fill="#FFFFFF" />
<rect x="34" y="46" width="4" height="1" fill="#FFFFFF" />
<rect x="34" y="47" width="3" height="1" fill="#FFFFFF" />
<rect x="124" y="47" width="2" height="1" fill="#FFFFFF" />
<rect x="34" y="48" width="2" height="1" fill="#FFFFFF" />
<rect x="124" y="48" width="1" height="1" fill="#FFFFFF" />
<rect x="1" y="50" width="1" height="3" fill="#FFFFFF" />
<rect x="90" y="50" width="1" height="3" fill="#FFFFFF" />
<rect x="50" y="57" width="19" height="6" fill="#FFFFFF" />
<rect x="71" y="57" width="15" height="6" fill="#FFFFFF" />
<rect x="38" y="58" width="12" height="5" fill="#FFFFFF" />
<rect x="86" y="58" width="12" height="5" fill="#FFFFFF" />
<rect x="30" y="59" width="8" height="4" fill="#FFFFFF" />
<rect x="98" y="59" width="8" height="4" fill="#FFFFFF" />
<rect x="24" y="60" width="6" height="3" fill="#FFFFFF" />
<rect x="106" y="60" width="6" height="3" fill="#FFFFFF" />
<rect x="19" y="61" width="5" height="23" fill="#FFFFFF" />
<rect x="112" y="61" width="5" height="23" fill="#FFFFFF" />
<rect x="15" y="62" width="4" height="21" fill="#FFFFFF" />
<rect x="117" y="62" width="4" height="21" fill="#FFFFFF" />
<rect x="12" y="63" width="3" height="19" fill="#FFFFFF" />
<rect x="24" y="63" width="5" height="22" fill="#FFFFFF" />
<rect x="34" y="63" width="5" height="2" fill="#FFFFFF" />
<rect x="44" y="63" width="3" height="24" fill="#FFFFFF" />
<rect x="51" y="63" width="3" height="25" fill="#FFFFFF" />
<rect x="66" y="63" width="3" height="1" fill="#FFFFFF" />
<rect x="71" y="63" width="2" height="25" fill="#FFFFFF" />
<rect x="85" y="63" width="7" height="1" fill="#FFFFFF" />
<rect x="107" y="63" width="5" height="1" fill="#FFFFFF" />
<rect x="121" y="63" width="3" height="19" fill="#FFFFFF" />
<rect x="9" y="64" width="3" height="17" fill="#FFFFFF" />
<rect x="68" y="64" width="1" height="1" fill="#FFFFFF" />
<rect x="85" y="64" width="5" height="1" fill="#FFFFFF" />
<rect x="109" y="64" width="3" height="1" fill="#FFFFFF" />
<rect x="124" y="64" width="3" height="17" fill="#FFFFFF" />
<rect x="7" y="65" width="2" height="15" fill="#FFFFFF" />
<rect x="35" y="65" width="3" height="3" fill="#FFFFFF" />
<rect x="85" y="65" width="4" height="1" fill="#FFFFFF" />
<rect x="110" y="65" width="2" height="1" fill="#FFFFFF" />
<rect x="127" y="65" width="2" height="15" fill="#FFFFFF" />
<rect x="5" y="66" width="2" height="13" fill="#FFFFFF" />
<rect x="29" y="66" width="1" height="19" fill="#FFFFFF" />
<rect x="43" y="66" width="1" height="21" fill="#FFFFFF" />
<rect x="58" y="66" width="6" height="12" fill="#FFFFFF" />
<rect x="70" y="66" width="1" height="22" fill="#FFFFFF" />
<rect x="77" y="66" width="11" height="3" fill="#FFFFFF" />
<rect x="94" y="66" width="11" height="12" fill="#FFFFFF" />
<rect x="111" y="66" width="1" height="19" fill="#FFFFFF" />
<rect x="129" y="66" width="2" height="13" fill="#FFFFFF" />
<rect x="4" y="67" width="1" height="11" fill="#FFFFFF" />
<rect x="64" y="67" width="1" height="10" fill="#FFFFFF" />
<rect x="93" y="67" width="1" height="10" fill="#FFFFFF" />
<rect x="105" y="67" width="1" height="10" fill="#FFFFFF" />
<rect x="131" y="67" width="1" height="11" fill="#FFFFFF" />
<rect x="3" y="68" width="1" height="9" fill="#FFFFFF" />
<rect x="30" y="68" width="1" height="18" fill="#FFFFFF" />
<rect x="36" y="68" width="1" height="3" fill="#FFFFFF" />
<rect x="42" y="68" width="1" height="19" fill="#FFFFFF" />
<rect x="92" y="68" width="1" height="8" fill="#FFFFFF" />
<rect x="106" y="68" width="1" height="8" fill="#FFFFFF" />
<rect x="132" y="68" width="1" height="9" fill="#FFFFFF" />
<rect x="2" y="69" width="1" height="7" fill="#FFFFFF" />
<rect x="65" y="69" width="1" height="6" fill="#FFFFFF" />
<rect x="85" y="69" width="3" height="18" fill="#FFFFFF" />
<rect x="133" y="69" width="1" height="7" fill="#FFFFFF" />
<rect x="1" y="70" width="1" height="5" fill="#FFFFFF" />
<rect x="134" y="70" width="1" height="5" fill="#FFFFFF" />
<rect x="0" y="71" width="1" height="3" fill="#FFFFFF" />
<rect x="31" y="71" width="1" height="15" fill="#FFFFFF" />
<rect x="41" y="71" width="1" height="16" fill="#FFFFFF" />
<rect x="135" y="71" width="1" height="3" fill="#FFFFFF" />
<rect x="77" y="72" width="8" height="6" fill="#FFFFFF" />
<rect x="32" y="73" width="1" height="13" fill="#FFFFFF" />
<rect x="40" y="73" width="1" height="14" fill="#FFFFFF" />
<rect x="33" y="75" width="1" height="11" fill="#FFFFFF" />
<rect x="39" y="75" width="1" height="12" fill="#FFFFFF" />
<rect x="34" y="78" width="1" height="8" fill="#FFFFFF" />
<rect x="38" y="78" width="1" height="9" fill="#FFFFFF" />
<rect x="69" y="78" width="1" height="10" fill="#FFFFFF" />
<rect x="88" y="78" width="1" height="9" fill="#FFFFFF" />
<rect x="110" y="78" width="1" height="7" fill="#FFFFFF" />
<rect x="68" y="79" width="1" height="9" fill="#FFFFFF" />
<rect x="89" y="79" width="1" height="8" fill="#FFFFFF" />
<rect x="109" y="79" width="1" height="6" fill="#FFFFFF" />
<rect x="66" y="80" width="2" height="8" fill="#FFFFFF" />
<rect x="90" y="80" width="2" height="7" fill="#FFFFFF" />
<rect x="107" y="80" width="2" height="5" fill="#FFFFFF" />
<rect x="35" y="81" width="3" height="5" fill="#FFFFFF" />
<rect x="47" y="81" width="4" height="6" fill="#FFFFFF" />
<rect x="54" y="81" width="12" height="7" fill="#FFFFFF" />
<rect x="73" y="81" width="12" height="7" fill="#FFFFFF" />
<rect x="92" y="81" width="15" height="4" fill="#FFFFFF" />
<rect x="92" y="85" width="14" height="1" fill="#FFFFFF" />
<rect x="92" y="86" width="6" height="1" fill="#FFFFFF" />
<rect x="50" y="87" width="1" height="1" fill="#FFFFFF" />
<rect x="85" y="87" width="1" height="1" fill="#FFFFFF" />
</svg>